<svg width="44" height="44" viewBox="0 0 44 44" fill="none" xmlns="http://www.w3.org/2000/svg">
<path d="M34.1 15.312C34.1 22.3949 28.6 23.4949 28.6 30.096C28.6 33.5038 25.1647 33.7909 22.55 33.7909C20.2917 33.7909 15.3054 32.934 15.3054 30.0938C15.3054 23.496 9.9 22.396 9.9 15.312C9.9 8.6779 15.7135 3.3 22.0913 3.3C28.4713 3.3 34.1 8.6779 34.1 15.312Z" fill="#FFC327"/>
<path d="M26.5837 38.896C26.5837 39.8068 24.1263 41.646 22 41.646C19.8737 41.646 17.4163 39.8068 17.4163 38.896C17.4163 37.9852 19.8726 38.346 22 38.346C24.1263 38.346 26.5837 37.9852 26.5837 38.896Z" fill="#CCD6DD"/>
<path d="M27.1777 14.4683C26.7476 14.0382 26.0524 14.0382 25.6223 14.4683L22 18.0906L18.3777 14.4683C17.9476 14.0382 17.2524 14.0382 16.8223 14.4683C16.3922 14.8984 16.3922 15.5936 16.8223 16.0237L20.9 20.1014V31.746C20.9 32.3543 21.3928 32.846 22 32.846C22.6072 32.846 23.1 32.3543 23.1 31.746V20.1014L27.1777 16.0237C27.6078 15.5936 27.6078 14.8984 27.1777 14.4683Z" fill="#E0B137"/>
<path d="M28.6 37.246C28.6 38.4604 27.6144 39.446 26.4 39.446H17.6C16.3856 39.446 15.4 38.4604 15.4 37.246V30.646H28.6V37.246Z" fill="#99AAB5"/>
<path d="M15.3989 38.346C14.8709 38.346 14.4045 37.9643 14.3154 37.4264C14.2153 36.828 14.6201 36.2604 15.2196 36.1614L28.4196 33.9614C29.018 33.8536 29.5856 34.2661 29.6846 34.8656C29.7847 35.464 29.3799 36.0316 28.7804 36.1306L15.5804 38.3306C15.5199 38.3416 15.4583 38.346 15.3989 38.346ZM15.3989 33.946C14.8709 33.946 14.4045 33.5643 14.3154 33.0264C14.2153 32.428 14.6201 31.8604 15.2196 31.7614L28.4196 29.5614C29.018 29.4547 29.5856 29.8661 29.6846 30.4656C29.7847 31.064 29.3799 31.6316 28.7804 31.7306L15.5804 33.9306C15.5199 33.9416 15.4583 33.946 15.3989 33.946Z" fill="#CCD6DD"/>
</svg>
