<svg width="40" height="40" viewBox="0 0 40 40" fill="none" xmlns="http://www.w3.org/2000/svg">
<path d="M21.6667 30C21.6667 30.9205 20.9205 31.6667 20 31.6667C19.0795 31.6667 18.3333 30.9205 18.3333 30C18.3333 29.0795 19.0795 28.3333 20 28.3333C20.9205 28.3333 21.6667 29.0795 21.6667 30Z" fill="#FFC327"/>
<path fill-rule="evenodd" clip-rule="evenodd" d="M20 3.33333C20.6053 3.33333 21.163 3.66149 21.4569 4.1906L38.1236 34.1906C38.4104 34.7068 38.4026 35.3362 38.1031 35.8452C37.8036 36.3542 37.2572 36.6667 36.6667 36.6667H3.33333C2.7428 36.6667 2.19636 36.3542 1.89688 35.8452C1.59741 35.3362 1.58962 34.7068 1.8764 34.1906L18.5431 4.1906C18.837 3.66149 19.3947 3.33333 20 3.33333ZM6.16586 33.3333H33.8341L20 8.43188L6.16586 33.3333ZM20 15C20.9205 15 21.6667 15.7462 21.6667 16.6667V23.3333C21.6667 24.2538 20.9205 25 20 25C19.0795 25 18.3333 24.2538 18.3333 23.3333V16.6667C18.3333 15.7462 19.0795 15 20 15Z" fill="#FFC327"/>
</svg>
