<svg width="40" height="41" viewBox="0 0 40 41" fill="none" xmlns="http://www.w3.org/2000/svg">
<path d="M18.1229 1.35066C18.8816 -0.0360422 20.8733 -0.0360454 21.632 1.35066L26.7585 10.7205C27.0325 11.2213 27.5075 11.5811 28.0638 11.7094L38.206 14.0474C39.6617 14.383 40.249 16.1379 39.2887 17.2821L32.2467 25.672C31.9022 26.0823 31.7368 26.6138 31.7875 27.1471L32.8399 38.2122C32.9865 39.7536 31.4013 40.8698 29.9995 40.2122L20.7269 35.8623C20.1887 35.6098 19.5662 35.6098 19.0281 35.8623L9.7554 40.2122C8.35361 40.8698 6.76838 39.7536 6.91499 38.2122L7.96738 27.1471C8.01811 26.6138 7.85272 26.0823 7.50827 25.672L0.466275 17.2821C-0.494095 16.1379 0.093274 14.383 1.54891 14.0474L11.6911 11.7094C12.2474 11.5811 12.7224 11.2213 12.9964 10.7205L18.1229 1.35066Z" fill="#FFC327"/>
</svg>
